# xmcd
#
# Track frame offsets: 
#        150
#        10379
#        22407
#        32664
#        42742
#        65472
#        78908
#        90278
#        100536
#        113413
#        144114
#        156399
#
# Disc length: 2231 seconds
#
# Revision: 2
# Processed by: cddbd v1.5.2PL0 Copyright (c) Steve Scherf et al.
# Submitted via: ExactAudioCopy v1.0b3
#
DISCID=8d08b50c
DTITLE=Buffy Sainte-Marie - The Best Of Buffy Sainte-Marie
DYEAR=1987
DGENRE=Native American
TTITLE0=Soulfull Shade Of Blue
TTITLE1=Summer Boy
TTITLE2=Universal Soldier
TTITLE3=Better To Find Out For Yourself
TTITLE4=Cod'ine
TTITLE5=He's The Kepper Of The Fire
TTITLE6=Take My Hand For A While
TTITLE7=Ground Hog
TTITLE8=The Circle Game
TTITLE9=My Country 'tis Of Thy People You're Dying
TTITLE10=Many A Mile
TTITLE11=Until It's Time For You To Go
EXTD=ID3G: 64
EXTT0=
EXTT1=
EXTT2=
EXTT3=
EXTT4=
EXTT5=
EXTT6=
EXTT7=
EXTT8=
EXTT9=
EXTT10=
EXTT11=
PLAYORDER=
